<svg width="112" height="38" viewBox="0 0 112 38" fill="none" xmlns="http://www.w3.org/2000/svg">
<path fill-rule="evenodd" clip-rule="evenodd" d="M6.70835 3.00017H26.8916C26.9327 3.00017 26.9749 3.00013 27.0181 3.00009C27.5912 2.99955 28.3452 2.99883 29.0049 3.08851C29.823 3.19971 31.0322 3.50785 32.065 4.55197C33.0977 5.59608 33.4024 6.81869 33.5124 7.64577C33.6011 8.31279 33.6004 9.07507 33.5999 9.6545C33.5998 9.69822 33.5998 9.74091 33.5998 9.78243V29.8175C33.5998 29.8591 33.5998 29.9017 33.5999 29.9455C33.6004 30.5249 33.6011 31.2872 33.5124 31.9542C33.4024 32.7813 33.0977 34.0039 32.065 35.048C31.0322 36.0921 29.823 36.4003 29.0049 36.5115C28.3452 36.6011 27.5913 36.6004 27.0181 36.5999C26.9749 36.5998 26.9327 36.5998 26.8916 36.5998H6.70835C6.66728 36.5998 6.62507 36.5998 6.58182 36.5999C6.00872 36.6004 5.25477 36.6011 4.59503 36.5115C3.77698 36.4003 2.56773 36.0921 1.53502 35.048C0.502305 34.0039 0.19753 32.7813 0.0875465 31.9542C-0.00115368 31.2872 -0.000449554 30.5249 8.58983e-05 29.9455C0.000126145 29.9017 0.000165691 29.8591 0.000165691 29.8175V9.78243C0.000165691 9.74091 0.000126145 9.69823 8.58983e-05 9.65452C-0.000449554 9.07508 -0.00115368 8.3128 0.0875465 7.64577C0.19753 6.81869 0.502305 5.59608 1.53502 4.55197C2.56773 3.50785 3.77698 3.19971 4.59503 3.08851C5.25477 2.99883 6.00873 2.99955 6.58184 3.00009C6.62508 3.00013 6.66729 3.00017 6.70835 3.00017ZM4.20253 7.24894C3.7726 7.68362 3.7726 8.38322 3.7726 9.78243V29.8175C3.7726 31.2168 3.7726 31.9164 4.20253 32.351C4.63246 32.7857 5.32443 32.7857 6.70835 32.7857H26.8916C28.2755 32.7857 28.9675 32.7857 29.3974 32.351C29.8274 31.9164 29.8274 31.2168 29.8274 29.8175V9.78243C29.8274 8.38322 29.8274 7.68362 29.3974 7.24894C28.9675 6.81426 28.2755 6.81426 26.8916 6.81426H6.70835C5.32443 6.81426 4.63246 6.81426 4.20253 7.24894Z" fill="white"/>
<path d="M24.7059 15.3314C24.7059 17.2298 23.1669 18.7688 21.2685 18.7688C19.3701 18.7688 17.8312 17.2298 17.8312 15.3314C17.8312 13.4331 19.3701 11.8941 21.2685 11.8941C23.1669 11.8941 24.7059 13.4331 24.7059 15.3314Z" fill="white"/>
<path d="M8.8941 24.4405C8.8941 22.637 10.3561 21.175 12.1596 21.175H15.425V27.7059H12.1596C10.3561 27.7059 8.8941 26.2439 8.8941 24.4405Z" fill="white"/>
<path d="M21.2685 21.175C19.3701 21.175 17.8312 22.7139 17.8312 24.6123V27.7059H24.7059V24.6123C24.7059 22.7139 23.1669 21.175 21.2685 21.175Z" fill="white"/>
<path d="M8.8941 11.8941H12.6752C14.1939 11.8941 15.425 13.1253 15.425 14.644V18.4251H8.8941V11.8941Z" fill="white"/>
<path d="M67.121 27.6901C65.6282 27.6901 64.2786 27.3529 63.072 26.6786C61.886 25.9838 60.9351 25.0539 60.2193 23.8891C59.524 22.7038 59.1764 21.3857 59.1764 19.9347C59.1764 18.4838 59.524 17.1861 60.2193 16.0417C60.9146 14.8769 61.8655 13.9573 63.072 13.2829C64.2786 12.5881 65.618 12.2407 67.0904 12.2407C68.6036 12.2407 69.9533 12.5881 71.1394 13.2829C72.3459 13.9573 73.2968 14.8769 73.9921 16.0417C74.6874 17.1861 75.035 18.4838 75.035 19.9347C75.035 21.3857 74.6874 22.7038 73.9921 23.8891C73.2968 25.0539 72.3459 25.9838 71.1394 26.6786C69.9533 27.3529 68.6139 27.6901 67.121 27.6901ZM67.0904 23.9504C67.847 23.9504 68.5116 23.7869 69.0842 23.4599C69.6772 23.1125 70.1271 22.6425 70.4339 22.0499C70.7611 21.4368 70.9247 20.742 70.9247 19.9654C70.9247 19.1888 70.7611 18.5042 70.4339 17.9116C70.1067 17.319 69.6568 16.8592 69.0842 16.5322C68.5116 16.1848 67.847 16.0111 67.0904 16.0111C66.3542 16.0111 65.6998 16.1848 65.1272 16.5322C64.5546 16.8592 64.1047 17.319 63.7775 17.9116C63.4504 18.5042 63.2868 19.1888 63.2868 19.9654C63.2868 20.742 63.4504 21.4368 63.7775 22.0499C64.1047 22.6425 64.5546 23.1125 65.1272 23.4599C65.6998 23.7869 66.3542 23.9504 67.0904 23.9504Z" fill="white"/>
<path fill-rule="evenodd" clip-rule="evenodd" d="M92.1001 27.3836H88.1125V26.0385C87.7243 26.4223 87.2744 26.748 86.7629 27.0157C85.904 27.4653 84.9429 27.6901 83.8795 27.6901C82.5094 27.6901 81.2824 27.3529 80.1986 26.6786C79.1148 26.0042 78.2559 25.0846 77.622 23.9197C77.0085 22.7549 76.7017 21.447 76.7017 19.996C76.7017 18.5247 77.0085 17.2066 77.622 16.0417C78.2559 14.8769 79.1045 13.9573 80.1679 13.2829C81.2518 12.6085 82.489 12.2713 83.8795 12.2713C84.9429 12.2713 85.8938 12.4859 86.7322 12.915C87.2437 13.1706 87.6936 13.4878 88.0818 13.8666V10.749C88.0818 8.5312 89.8809 6.73334 92.1001 6.73334C92.1001 14.1209 92.1001 19.9961 92.1001 27.3836ZM86.5175 23.4906C85.9654 23.8175 85.311 23.981 84.5544 23.981C83.8386 23.981 83.1945 23.8175 82.6219 23.4906C82.0493 23.1432 81.5994 22.6731 81.2722 22.0805C80.9655 21.4674 80.8121 20.7624 80.8121 19.9654C80.8121 19.1888 80.9655 18.5042 81.2722 17.9116C81.5994 17.319 82.0391 16.8489 82.5912 16.5015C83.1638 16.1541 83.8284 15.9804 84.585 15.9804C85.3212 15.9804 85.9654 16.1541 86.5175 16.5015C87.0901 16.8285 87.5298 17.2985 87.8365 17.9116C88.1637 18.5042 88.3273 19.1888 88.3273 19.9654C88.3273 20.7624 88.1637 21.4674 87.8365 22.0805C87.5298 22.6731 87.0901 23.1432 86.5175 23.4906Z" fill="white"/>
<path fill-rule="evenodd" clip-rule="evenodd" d="M98.201 26.6786C99.2848 27.353 100.502 27.6902 101.851 27.6902C102.915 27.6902 103.866 27.4756 104.704 27.0464C105.261 26.7476 105.742 26.381 106.146 25.9467V27.3836H110.133V12.5778H106.146V14.0012C105.742 13.5624 105.261 13.2003 104.704 12.9151C103.866 12.4859 102.915 12.2713 101.851 12.2713C100.502 12.2713 99.2848 12.6085 98.201 13.2829C97.1172 13.9573 96.2685 14.8769 95.655 16.0417C95.0415 17.2066 94.7348 18.5247 94.7348 19.9961C94.7348 21.447 95.0415 22.7549 95.655 23.9198C96.2685 25.0846 97.1172 26.0042 98.201 26.6786ZM105.317 22.8775C104.622 23.6132 103.712 23.9811 102.587 23.9811C101.851 23.9811 101.197 23.8176 100.624 23.4906C100.072 23.1432 99.6325 22.6732 99.3053 22.0805C98.9985 21.4675 98.8452 20.7624 98.8452 19.9654C98.8452 19.1889 98.9985 18.5043 99.3053 17.9116C99.6325 17.2985 100.072 16.8285 100.624 16.5016C101.197 16.1541 101.851 15.9804 102.587 15.9804C103.344 15.9804 103.998 16.1541 104.551 16.5016C105.123 16.8285 105.563 17.2985 105.87 17.9116C106.197 18.5043 106.36 19.1889 106.36 19.9654C106.36 21.1507 106.013 22.1214 105.317 22.8775Z" fill="white"/>
<path d="M52.9027 23.368C52.9027 25.5858 54.7017 27.3836 56.921 27.3836V18.0036C56.921 17.0022 56.6756 16.0724 56.1848 15.2141C55.694 14.3354 55.0192 13.6303 54.1603 13.099C53.3014 12.5472 52.3301 12.2713 51.2462 12.2713C50.1215 12.2713 49.1093 12.5166 48.2095 13.007C47.7371 13.2705 47.3178 13.59 46.9516 13.9656V12.5779H42.9333V23.368C42.9333 25.5858 44.7324 27.3836 46.9516 27.3836V18.8924C46.9516 18.2998 47.0745 17.7788 47.3199 17.3292C47.5858 16.8796 47.9436 16.5322 48.3935 16.287C48.8434 16.0417 49.3547 15.9191 49.9272 15.9191C50.8066 15.9191 51.5223 16.195 52.0745 16.7468C52.6266 17.2985 52.9027 18.0138 52.9027 18.8925V23.368Z" fill="white"/>
</svg>
